<svg xmlns="http://www.w3.org/2000/svg" version="1" width="424" height="454" viewBox="-0.4 -0.6 423.95 454.2"><path fill="#60615f" d="M409 82h2v1q-3 6-14 18-11 13-19 18l11 4 10 1 2 1-2 2-44 16-45 20q-5 3-22 20l-23 24h-8l-7 1 20-38q14-28 20-34 11-10 60-31 41-18 59-23M246 422l20-14q7 5 12 16 4 9 5 16l-1 1-1-1-3-3 1 7v7l-1 1-1-1-2-3-3-4 1 3-1 1q-2 1-6-7-2-4-8-9l-12-10"/><path fill="#b80059" d="M257 154v11l-1 2q-1 1-1-1l-3-3-4-4q-5-3-8-8l-4-9q5 3 11 3 4 0 6-3l4 12M276 121l10 12 7 5q3 3 6 3 2 0 2 2l-2 2-12 2h-13l-12-8q-7-5-11-10l5-3 20-5M314 34v3l-12 15-13 15-5 12-5 13q-1 3 1 4 6 2 14 1 8 0 13-2l7-2 5-1 2 1v1l-11 11-13 10q-3 2-10 3l-12 1-54 9q-5 3-16 5-13 3-22 2-3-1-1-4l11-10 16-10h-11l-11-2q-3-1-15-15l-16-21-1-2h3l17 9 17 8q4 2 9 2l9 1q-5-4-12-14-6-9-7-13l-1-17V26l1-2 1 1 9 19 12 20q2 3 8 6l8 4 2-21q2-14 4-18 2-5 12-17 11-13 16-16l3-1 1 3-4 18-5 18v16l4 17 6-9q4-7 8-10l18-11 17-9h3"/><path fill="#5c94bf" d="M140 266q3-18 13-31l19-7 74 3 13 17q6 12 5 28 0 16-7 30-7 16-20 24-14 10-34 10-21 0-37-11-14-10-21-28-7-17-5-35"/><path fill="#5c94bf" d="M141 287q2 12 9 24 6 9 13 15-3 7-6 23l-5 22v2l-2-1-2-5-1-7-4 11-1 11-1 2-1-1-2-2-1-4-2 10v2l-2-2q-8-16-5-49 3-31 13-51M246 322q7-7 12-17 5-11 6-22 5 8 8 22 4 13 5 29 3 36-9 58l-1 2-1-2v-10l-3-10-3 8-2 1v-2l-1-9-3-9-2 7q-1 2-2 1v-1-23q-1-15-4-23M218 339l10-4q0 23 10 41t30 33l4 15-9-10-16-15q-12-12-21-30-8-18-8-30"/><path fill="#b80059" d="M205 340l13-1q1 18 13 38 9 16 23 28 12 11 18 19v4q0 3-2 1l-5-4-5-3 3 8v2l-2-1-5-4-8-3-5-4-6-3q-18-13-31-33-14-22-16-45l15 1M162 254l8-11 17 8-1 20q-5 13-5 35 1 22 7 33l-14-6-12-7q-7-14-6-37 1-21 6-35M239 242l8 19q4 15 2 36-3 20-10 32-3 3-10 6l-11 4q7-15 8-38 1-21-5-31v-22l18-6"/><path fill="#60615f" d="M334 198q-9 13-15 25 6-7 13-12l10-6h2v2q-1 6-9 18-7 11-13 17 9-3 22-2 3 1 1 3l-6 5-9 5q3 0 8 3l6 4 1 2-2 1-13 1q-7-1-13-4h-5q-6 3-17 5l-18 2-7-4q-5-3-8-8l-3-6-6-5-7-2 1 10v9l-5-6-5-5q0 8-3 17-2 8-6 12l-2-6-3-7-9 16q-7 10-9 10-3 0-11-10-9-11-12-19l-3 7-1 6q-3-3-5-12l-1-16q-7 3-12 8-1-4 1-10l4-10-13 4 1-5-6 10-15 7-6 1-7-1-14-8-15-11q-5-1-11 2l-9 6q-1 2-2 0l-1-9 6 1q3 1 5-1 16-10 22-12l2-1v-2l-1-7-2-8q-1-2 2-2 2-1 6 1v-6l-1-6v-5-4l1-2 1 1 4 7 5 8 2 6v11l1 3 3 3 4 5q4 3 10 1l8-4 11-5-4-3 7-1-10-10 9-1q6 0 9 2l-3-17q-2-10 0-14 4 0 12 10 6 8 9 15l7-30 9-31 11-3 9-3 6 7 6 5q-6 15-8 30-2 16 1 33 5-8 16-16 10-7 16-8l-4 14q-4 11-8 16l10-2 9 1-5 5-5 6 9 2q-4 0-8 3 18 14 26 15l10-3 10-4 3-3 2-3q4-9 18-25 15-17 27-22-8 6-18 19"/><path fill="#60615f" d="M295 235q-7 3-12 3-4 1-10-2l-9-6 17-1 14-2 6 1 4 1q-3 3-10 6M356 177q-8 2-21 14-12 11-17 18-4-1-14 2l-18 8-23 10-7-5q5-3 8-3l-6-2 27-24q21-17 27-19 12-4 54-3 40 0 55 4l1 1-1 1-22 8-26 7 9 7 7 8v1l-2 1-10-1-12-2 3-9v-2h-2l-8 4-10 7h-2l7-16q5-10 5-13v-2h-2M33 42v-2l2 1q12 7 52 36 42 31 47 38 4 6 14 31l15 35 2 10 2 10-7-2h-7l-20-31q-14-24-23-32l-29-21Q51 96 44 90l-1-2 1-1q6-2 21-2L48 64 33 42M113 187l-6-9-3-10-5-12q8 1 28 19l24 25h-2l5 6 5 4-7 1 4 3-7 4-14-11-16-8q0-3-6-12M2 146q-2-1-1-2h2l51 5 34 4-2 16-13-1q-7 1-10 3t-6 8l-7-1-6-1h-3v2l-10-2-9-2-1-2 2-1 7-3 8-3-19-10-17-10M120 214l-1-3v-2l13 5 12 6-8 4h-5l-4-2-3-4-4-4"/><path fill="#b80059" d="M89 147l1-2h2q5 4 9 16 5 10 6 17l-1 4v7l-7-12-5-5q-4-3-8-3l2-13 1-9M71 169l-7 1-4 4v-9l-1-7v-2h2q4 0 9 4 5 3 9 8l-8 1M57 179l-2 5 2 8 5 8q1 2-1 4l-2 3q-3 4-4 10t1 10q1 2 5 3 3 2 7 2l-1 1-7 1-6 2h-2v-1l1-3 2-5-10-5-7-5q0-2 6-5l11-3q-5-4-9-14-5-10-5-16l1-2h1l14 2M358 178l-4 14q-4 10-9 16h-2l1-3h-3l-10 7-12 10q5-11 17-26 10-14 16-17l5-2h1v1M356 201l10-4h2v2q0 3-4 11l-17-2 9-7M326 263l13 1 6-2-4-4 9 2 11 1q4 0 5-2l3 5q1 1-1 1l-15-1 6 5 1 1-1 1q-6 1-16-1-12-2-17-7"/><path fill="#5c94bf" d="M241 71q3 0 10 6l9 8q2 3 3 0l1-2 2 1q5 3 7 12 2 10-1 19l4 8-2 5q-3 3-6 3-5 1-12-5-7-7-9-13h-7l-7-1-11-1q3 12 9 19 7 8 18 10l3-1h1q1 3-2 5h-8q-11-2-20-14-8-10-10-23-2-7 1-15 2-7 6-11 2-3 10-7l11-3M55 184l2-6 6-7q4-3 15-3t15 3l7 8 6 10 1 6v7q-2-2-5-2h-3v2l2 8 1 7v2l-1 1-11 5-12 7-2 1h-2q-7 0-15-4l-3-2-1-3 12 3q6 1 10-1l11-8 9-9-2-5-3-4H81l-14 1-4-1-3-2-3-7-2-7M362 210q9 1 13 4 3 1 7 7l6 11 1 4-1 5q-1 2-3 2-2 1-6-2t-9-4h-12l-7 2h-7q4 10 10 16 5 5 10 6h-11q-8-1-12-4l-11-4 9-5 6-5q2-1-1-2l-11-1q-7 0-12 2 7-5 14-17 6-10 8-17 10 0 19 2"/><path fill="#60615f" d="M99 183q2 1 2 5 1 4-1 6h-7q-5-1-5-3t4-5q4-4 7-3M356 218l5 5q3 5 2 6l-5 1-7-1q-2 0-5-3l-3-5 5-2q4-2 8-1M237 85l5 3q3 3 4 8v10l-4-2-4-1q-6-1-8-6-2-4 0-12h7"/><path fill="#b80059" d="M237 90q4 0 6 4v7q-3 0-5-4t-1-7"/><path fill="#ec869b" d="M83 200h9l3 4 2 5q-1 3-10 10-8 7-12 8h-7l-8-1q-2-8 0-15 2-6 9-11h14M345 240v-1h1l15-2 2 8q2 3 1 7 0 5-2 8-6-2-11-8l-6-12M232 130q-6-6-10-19h5l6 1 10 1q4 3 5 12 1 8-1 14-9-2-15-9"/><path fill="#fff" d="M235 133l3-2 3-1v7l-6-4M251 120l5 6-6 3v-4l1-5M263 130l5 2-2 2-2 2-1-6"/><path fill="#980048" d="M314 34q1 2-1 4l-12 15-12 14-5 12-6 13v2l1 3q-3-1-4-4l-1-4q1-7 4-13l6-11q3-5 14-16l16-15M312 104q-9 8-14 10l-11 4-12 1-3-4 1-3h12q7 0 12-2l12-8 12-10q0 3-9 12M191 24q3 33 5 38 1 4 8 13l11 12-1 3-4 1-12-14q-6-9-7-13l-2-22q0-18 2-18M156 74l-1-2v-2l19 21q12 12 15 13l12 2 12 1v4h-13q-10-1-14-3-4-1-15-16l-15-18M202 134l-17 1q-4 0-4-2 6 0 19-4 13-5 17-8l4 7q-9 4-19 6"/><path fill="#4a7a9e" d="M213 110q-2-9 0-17 0 13 7 25 7 11 18 17l6 3 5 2h2l1-2h1q1 3-1 5t-5 2q-7 0-14-5t-12-13q-5-8-8-17M272 115l-3-2-1-2q2-5 2-13-1-11-5-15 6 3 8 15 2 11-1 17"/><path fill="#980048" d="M301 142q0 2-3 3l-13 2h-12l-9-6-8-7 1-1h-2l-4-4 6-3 5 4 1 3 1 3 2-2 2-3q3 0 5-2l7 7 7 5 6 1h8M241 152q-4-5-5-10l9 3q6 0 8-3l2 5v10l-1 8-6-5q-4-3-7-8"/><path fill="#cc7487" d="M225 119l-3-8 10 1 11 1 5 10 1 10q-4-9-12-13t-12-1"/><path fill="#4a7a9e" d="M142 293q-5-18 0-34 0 24 14 40 1 14 5 26-13-13-19-32M203 320q11 0 22-3l-3 11-4 11-14 1-16-1-4-11-2-12q10 4 21 4M259 303q-6 15-19 25 6-12 8-27 14-14 16-37 2 21-5 39"/><path fill="#980048" d="M156 299q10 12 26 17l2 12 4 11q-15-4-27-14-4-12-5-26M222 328l3-11q14-5 23-16-2 15-8 27-10 8-22 11l4-11"/><path fill="#4a7a9e" d="M180 336l10 3q3 24 16 45 12 18 31 33l-5-3q-21-12-34-31-15-20-18-47M228 339q-5 5-8 11-2-5-2-11 6-1 11-4l-1 4"/><path fill="#980048" d="M204 340l14-1q0 6 2 11-8 14-4 31 5 17 18 25l13 8 13 9 3 9-7-5-8-3-11-7q-19-15-31-33-13-21-16-45l14 1"/><path fill="#4a4c4b" d="M248 424l8 3 7 5-3-9q16 14 18 29l-3-4-3-4v5l-2-2-3-4q-3-8-12-14l-7-5"/><path fill="#4a7a9e" d="M145 302l8 14 10 10-6 21-5 24v1h-1l-3-5-2-7-3 12-1 10-1 2-1-1-3-6-1 9-1 3q-6-20-1-48 4-23 11-39M260 299q6 17 9 45 3 31-2 50l-1-8q-1-10-3-13l-4 7q-1 2-1-1l-1-10q-1-6-3-8l-3 7-1 1v-2-23q-1-14-4-22l8-9q5-8 6-14M78 232q-2 2-5 1l-8-2-7-2-3-5 9 3 9 1q6 0 15-6 9-5 13-10l1 5v2l-2 1-11 5-11 7M106 191l1 5v6l-3-2q2-6-1-15 3 3 3 6M343 208l-4 18-7 14q-7 0-11 2 6-5 13-15 7-11 9-19M342 246l7 7 8 5 7 3h-11q-7-1-12-4l-6-2-6-2q8-3 13-7"/><path fill="#980048" d="M358 178q-7 3-11 13-2 8-1 16l-3 1 1-3q-2-1-11 5l-14 13 14-23q10-14 17-21l6-2q3-1 2 1M368 198l-7 5-5 6-9-1 9-7 9-4 3 1M336 264l6-1 3-1-1-2-2-2 8 3 10 1 4-1 2-2 3 6h-7l-9-1 5 5 2 1q-2 2-7 1l-10-3-7-4M90 145l4 14 4 16q-2-3-5-4l-7-2 2-14 2-10M59 156q5 5 9 13l-4 1-4 4v-9l-1-6v-3M46 195q-6-13-5-18 2 7 8 15 6 9 12 13l-4 5q-5-3-11-15M46 223q-6-3-8-6l9 1h8v5l1 5-10-5"/><path fill="#980048" d="M55 227l6 3 7 3-9 1-6 2v-4l2-5"/><path fill="#913000" d="M69 200q-6 3-9 11-3 7 0 15l-5-2q-1-5 1-11 1-5 4-8l3-5h6M243 113h4l5 8-1 3-1 4 1 1 1 8-1 2h-4q3-5 1-14t-5-12M361 237h7l-2 6 1 6v6l-2 6-3-1q2-3 2-7 1-5-1-8l-2-8"/><path fill="#cc7487" d="M81 200h11l3 4 2 5-5 5-7 6q-2-8-9-12t-13-3l6-4 12-1M346 239l15-2 2 6q-4 0-7 3-3 4-3 8-6-6-8-14-1-1 1-1"/><path fill="#4a4c4b" d="M247 234q8 7 12 14-8-6-13-6l1 10v9l-5-6-5-5-2 16q-3 9-7 13l-2-7-3-6q-2 6-9 16t-10 10q-2 1-11-11-9-11-11-17l-3 5-1 7q-3-2-5-13-2-8-1-15-9 4-12 8l1-10 4-10-13 4q4-5 10-9t12-5q-5 7-6 17 5-3 9-3l-1 7 1 7 3-3 3-2q3 10 11 23 7 11 10 11 2 0 10-12 8-13 9-20l6 12 3-11 1-11 8 6-2-9q-2-7-4-9 4 0 12 5M256 224l-2-2 5-1h5l-4 1-4 2M265 208l-5 6-5 6-1 1-2-1-4-2 9-7 8-3M150 201q4 0 8 3l8 5-3 1-2 1-6-4-5-6M152 211l7 1-3 2-4-3M123 217l14 6-5 1-4-1-5-6M289 237l-6 2-6-1-5-3 24-1-7 3M79 232l4-3h18l8-2q-2 3-7 5l-12 1q-5-1-11 2l-9 6-1 1-1-2v-8q5 2 8 1l3-1M104 200l5 3 4 4 1 5 1 6q-1 2-2 1-2-1-1-2l-2-9q-2-5-6-8M107 178l5 8q5 7 6 11l1 7-1 7-1-9-3-8-4-8-3-8"/><path fill="#4a4c4b" d="M107 229q3 4 10 7l9 3q5 0 16-5t16-9l-5 9-3 5-4 7q-9 5-14 6l-7 1-6-1q-6-2-15-8l-14-11q11 1 17-4M346 242l-6 5-10 6 10 4q5 3 5 5t-11 2q-11 0-17-3l-5-1q-6 3-16 5l-18 2q-5-1-10-6l-7-7-2-7-3-8q6 7 13 12t11 6l17-2 14-4h5q6 0 16-3l14-6"/><path fill="#4a4c4b" d="M344 205q0 6-8 20-8 12-14 17h-3q-2-2 0-3l14-16 11-18M332 201l-13 22q-3 2-5 6 2-11 14-27 11-14 23-23-9 7-19 22M43 88q11 7 42 21 26 15 36 26l21 30 20 34h-8l-24-35q-14-23-19-27-6-6-33-23L45 91l-2-3M21 173h20l19-3v4l-3 5-8-2-6-1-2 1v2l-11-2q-8-2-9-4M109 181q10 5 24 15l19 14v1l4 3-7 4-14-10-16-9-4-9-6-9M318 208l-10 2-22 9-24 10-6-5 8-3q10-7 24-13 16-7 25-8l13-1-8 9M348 208h-3l4-7h7q-5 3-8 7M365 208l2-5q16 3 22 7h-10l-14-2M354 138l27-7 19-6q2 1-3 3l-45 17q-36 14-43 19-5 3-20 19-13 12-24 25l-6-1 23-29q15-17 22-22 13-9 50-18M200 134q10-1 21-6l5 6 7 6-3 7-2 6q-4 4-13-1t-15-18"/><path fill="#dcdddd" d="M241 130v7l-3-2 3-5M254 123l3 3-7 3 4-6M265 131h3q-1 3-4 5l1-5"/><path fill="#980048" d="M223 266l2 4-2 4-2-4 2-4M75 234l-3 3q-3 3-3 5l-1-4-1-5h4l4 1"/><path fill="#4a4c4b" d="M339 269l-7-2-5-3h12l12 7-12-2"/><path fill="#0f141b" d="M233 131q6 6 16 8 3 0 2-1v-9h1l1 8-1 3-3 1q-11-3-17-10-7-7-11-19l1-2 7 1 8 1h10l1 1q2 6 9 12 6 6 11 5l4-2q3-3 3-5l-2-5-4-4v-1h1l4 4 3 5q0 4-3 7t-6 3q-5 1-12-5t-9-13h-11l-6-1-7-1q4 12 10 19"/><path fill="#0f141b" d="M249 130v-1l2-10 1 2-1 4v3l2-1 3-1 1 1-7 3h-1M262 133v-3h1v3l1 2 1-1 2-3h2l-2 3-3 3h-1l-1-4M242 130v8l-1-1v-6l-2 1-4 2-1-1 7-4 1 1"/><path fill="#0f141b" d="M247 139q2-5 0-14-1-8-6-12h3q4 4 5 13 1 8-1 14l-1-1"/><path fill="#0f141b" d="M241 72l-11 3q-7 3-10 7-5 5-6 14-2 9 1 17 11 28 30 31l6-1q2-2 1-4l2-1q1 4-2 6-2 2-7 2-20-3-32-32-3-9-1-19 2-9 6-15 3-3 12-7l12-3 10 7 9 8 1 1 1-2 1-1h3q5 5 7 15t-2 18l-1-1q3-8 1-17t-6-13h-2l-2 2q-2 1-3-1l-8-8q-6-5-10-6"/><path fill="#0f141b" d="M266 84q3 4 4 11 2 8-1 16l-1 1v-1q2-9 1-17l-5-10h2M270 128l1-1v1l-1 1-1-1h1M264 126l-1-1v-1h1v2M240 71q8 2 11 15 3 11 0 23l-1 1v-1q3-14-1-25-4-12-13-12l4-1"/><path fill="#0f141b" d="M244 88l3 9-1 11-1 1v-1q1-13-3-19l-6-3h-9l1-1 9-1q4 1 7 4"/><path fill="#0f141b" d="M231 85q-2 8 0 12t7 5q6 1 8 3v2l-4-2-4-1q-6-1-8-5-3-5-1-13l2-1"/><path fill="#0f141b" d="M243 93l1 5v3h-3l-4-4-1-5v-3l3 1 4 3m-6-3q0 4 2 6 1 4 4 4l-1-7q-2-3-5-3M237 142q1 5 5 10 2 4 7 7l3 4 3 3h1q1-6-1-13l-3-10 1-2q3 4 4 11l1 14q0 2-2 2-1 1-2-1l-7-6-8-9-5-11 3 1M276 120l6 8 7 7q6 5 10 5 3 1 3 3l-2 2q-4 2-14 3h-13l-10-7-11-9v-3l11 10 11 7h12l13-2 1-1-1-1q-5-1-11-6-6-4-12-13v-3M314 34l-4 1-18 10-15 10-8 9-7 11-1-3 7-10 7-9 16-10 19-10h5q1 2-1 5l-17 21-7 9-6 12-5 12v2l1 1 15 1 11-1 13-3h3l-1 2q-2 4-10 11l-12 10-11 4-13 1-1-2 13-1 11-4 12-9 10-10-1-1-12 3q-6 3-12 3l-8-1-7-1q-4-1-2-5l4-13 6-12 8-10 16-20 2-3"/><path fill="#0f141b" d="M263 3l-17 17-11 16-3 17-2 21-2 1 2-22 3-18 11-16 18-18q3-2 4-1 2 1 1 4l-2 12-3 11-3 12q-1 6 1 18l3 20v1l-1-1-5-21V39l3-12 4-12 2-11-1-2-2 1"/><path fill="#0f141b" d="M190 47l2 17q1 4 8 14l11 13h-3l-10-13q-7-9-8-13l-1-18V25q0-2 2-2 1-1 2 2l9 18 10 18 9 8q5 4 10 5l-3 1q-5-1-10-5l-8-8-10-19q-6-11-8-18h-1l-1 22"/><path fill="#0f141b" d="M172 93l15 15 10 2h12l2 1-1 1-17 11q-9 6-11 10-1 1 1 1 9 1 19-1l9-3 10-3 1 2-10 3-10 3-10 1-9-1-3-1 1-3 9-9 16-10h-12l-8-2-15-16q-11-12-16-20-2-3-1-4h5l17 9 18 9 8 1 9 1 2 1h-2q-9 1-18-1l-18-9-17-9-2-1v2l16 20"/><path fill="#0f141b" d="M203 134q-5 12-11 36-6 23-9 42 0 2-1 1v-1q2-19 8-42 5-22 10-36h3M234 141q-7 19-9 33-1 16 3 39v2l-1-2q-5-23-4-38 1-16 9-35l2 1"/><path fill="#0f141b" d="M176 180l9 14v2q-3-7-9-14-6-8-12-11-1 6 1 15 1 9 4 16v2l-1-1q-4-8-5-18-2-10 0-15v-1h1q6 3 12 11"/><path fill="#0f141b" d="M156 206l4 4v1h-7l4 3h-2l-4-3q-1-1 1-1h6l-9-9v-1q4-2 9-2l9 2 1 2q-4-2-9-2-5-1-8 1l5 5"/><path fill="#0f141b" d="M107 187l1 7v8l-2-1v-7l-1-7v-8l2-2 1 1 6 10 5 9q2 4 1 13v2l1 1 8 9q2 2 9 0l19-10 18-7 1 1-1 1-18 7-18 9q-8 4-12 0l-7-9-2-4q1-8-1-12l-4-10-6-9-1 4 1 4"/><path fill="#0f141b" d="M101 199l7 2 6 6 1 5v5l-1 2v-2q0-6-2-9l-5-5-6-3-1 1v2l3 15q1 2-2 3l-12 5-11 7q-2 2-4 1l-9-1-8-4q-3-2-3-10t4-13q4-4 4-6h1l-1 4-2 3q-4 4-4 12-1 7 2 8l7 4 9 2 3-1q18-11 24-13l1-1-4-15 1-3 2-1"/><path fill="#0f141b" d="M57 190l4 8 3 2h3q21-2 25-1l3 4 2 4v3l-1 2-9 8-11 8H65q-8-1-10-4l1-2q0 2 8 4h11q4-1 11-7l9-8 1-2v-2l-2-3-2-3H63l-3-2q-3-3-4-8l-2-7 3-7 5-7q5-3 16-3 12 0 17 4l6 7 5 9 1 7-6-12-7-10q-5-3-16-3-10 0-15 3l-5 6-2 6 1 6"/><path fill="#0f141b" d="M71 200q-7 4-10 11t0 15h-2q-2-8 0-14 2-7 9-12h3M102 188l-1 6q-2 2-8 1t-6-4q0-2 4-6 5-4 8-2 2 0 3 5m-10-2q-4 3-4 5t5 3q5 1 7-1v-5l-1-4q-3-1-7 2"/><path fill="#0f141b" d="M57 179l-1 1-6-2-7-1-1 1v1q1 8 5 17 4 8 9 13v1l-1 1-8 1-7 4v1q2 3 8 6l8 4 2 2-10-4-10-6-1-2 1-2 7-4q4-2 9-2-5-5-9-13-4-9-5-17l1-3h2l7 1q4 0 7 2"/><path fill="#0f141b" d="M80 236q-6 2-10 6l-2 1-1-2-1-7-6 1-6 2q-3 1-3-2l1-4 2-4 2 1-2 3-1 4h1l6-2 7-1 1 1 1 7v1l10-7q7-3 12-2l9-1 7-3 2-1-1 2q-5 5-17 4-5 0-11 3"/><path fill="#0f141b" d="M91 232q4 5 14 11l13 8q8 3 15 0l15-8-1 3-14 7q-4 2-7 1l-8-1-15-9-14-11 2-1M119 209q16 5 26 10l-2 1-24-10v-1M90 144l2 1q5 4 10 14 5 11 6 19l-2 1-6-19q-4-10-9-14h-1l-3 23-2-1 3-22 2-2M61 155q4 0 10 4l9 9h-2l-9-8-8-4-1 1v1l1 15-2 2-1-17 1-2 2-1M119 198q9 4 17 10l14 9-2 1-13-9-16-9v-2"/><path fill="#0f141b" d="M38 165l1 1-1 1-15 5-1 1 1 1 9 3 9 1v2q-10-1-18-5l-3-2 2-2 14-5-17-9-17-11-2-2 3-1 29 3 42 4 14 2v2l-14-2-42-4-29-4H2v1l18 11 18 9M99 155l10 5q7 4 21 18l22 22h-2l-21-21q-14-14-21-18l-8-4-1-2M164 184q-7-13-13-30l-10-22-8-15q-9-12-48-40-33-25-51-36h-1l1 1 15 22 16 21q1 1-1 1H54l-9 1-1 1 1 1q3 4 32 22 29 19 35 25l12 15 11 19q13 21 20 29h-2l-10-13-9-15-12-19q-6-10-12-15l-33-23-34-23-1-3q0-2 2-2 6-2 19-2-7-7-16-20L33 43l-1-3h3q19 11 51 35 39 29 49 41l8 15 9 22 11 26 1 5M215 233q-4 5-10 8h-2l1-1q6-3 10-8l7-10 1-1v1q-2 6-7 11M151 241q1-8 6-15 4-8 10-11h1l-1 1q-5 4-9 10t-5 13l12-4v2l-13 4h-1"/><path fill="#0f141b" d="M167 233l-5 11-1 10q4-4 12-7h2l-1 1q-4 1-7 4l-7 5h-1v-1q-1-4 1-11l6-12 1-1v1"/><path fill="#0f141b" d="M172 248l1 13q2 9 5 13l3-12 1 2-3 13h-1-1q-3-5-5-15l-1-14h1"/><path fill="#0f141b" d="M194 281q8 10 10 10t10-11q8-12 10-20l1-1v2q-1 8-10 21-8 11-11 11-2 0-11-10-10-13-13-24v-1l1 1q3 10 13 22"/><path fill="#0f141b" d="M236 265q-2 9-7 15-1 2-2 0l-2-7-2-6 1-2 2 6 3 6 5-13q3-9 2-17v-1l1 1q1 9-1 18"/><path fill="#0f141b" d="M242 232q3 3 5 13 2 9 1 17l-1 1-1-1q-2-5-9-11v-2q6 5 9 10 1-8-1-15-1-8-4-11l-1-1h2"/><path fill="#0f141b" d="M254 233q5 9 6 16v1h-1q-6-5-13-7l-1-2q8 1 13 6-1-7-6-14-4-7-8-10l-1-2 1 1q6 3 10 11"/><path fill="#0f141b" d="M153 236q-10 16-12 34-1 18 6 34 8 16 22 25 15 10 35 10 18 0 31-9 13-8 20-23 7-13 8-29t-5-29l2-1q6 14 5 31 0 16-8 30-7 15-20 23-14 9-33 10-22 0-38-11-15-11-22-29-7-17-5-36 3-19 15-34l-1 4"/><path fill="#0f141b" d="M164 253q-6 10-7 35-1 26 6 37l-3-1q-6-12-5-35t6-34l3-2M186 272q-4 11-4 31 0 24 7 36l-2-1q-7-12-7-36 0-21 5-32l1 2M222 269q6 12 5 34-1 23-8 36h-3q8-12 9-35 1-21-4-33l1-2M248 261q4 14 2 34-2 23-10 33l-5 3q9-8 12-33 3-23-1-36l2-1"/><path fill="#0f141b" d="M240 285q-6 5-14 7v-2q8-2 14-7 6-4 9-11v3q-3 6-9 10M168 282l14 7v2q-15-6-25-17l1-2 10 10M225 310l14-7q6-4 10-9v3q-7 10-24 14v-1M182 311q-8-2-15-6-6-4-11-10v-2q4 5 11 9 6 5 15 7v2M222 327q8-2 14-6t10-9l-1 3q-3 5-9 8l-14 6v-2M184 328q-15-4-27-17v-3q11 12 26 18l1 2M240 190q-10 7-14 14v-2q4-7 14-14 9-8 18-10 2-1 1 1l-5 16-8 16-2 1 1-2 7-15 6-16q-9 4-18 11"/><path fill="#0f141b" d="M266 208l-10 11 8 1 1 1h-1q-4 1-7 4l-1-1 6-3-7-1h-1v-1l10-11q-8-1-18 2l1-2q10-3 18-1h1v1"/><path fill="#0f141b" d="M359 179l-5 14q-3 8-8 15h-2l8-16q5-9 6-14h-1q-11 3-28 20-16 17-22 30l-1 2-2 1q-8 6-17 8l-6 1-7-3q-4-1-11-6l-10-8-6-5-5-2-1-1h1q5 0 13 7l10 7 9 6 7 2h6l16-7 2-3q6-14 22-30 17-18 30-21h2v3"/><path fill="#0f141b" d="M354 178q-8 6-19 20l-14 22-4 4q4-9 13-22 11-15 21-23l3-1"/><path fill="#0f141b" d="M345 206q-2 7-8 17-6 11-13 17h14q7 0 8 2l-6 6q-6 5-13 6h-1l1-1 10-4 7-6 1-1h-1l-10-1q-7 0-12 2l-1-1v-1q7-6 14-17 7-12 8-18v-1q-5 2-14 10-10 7-14 14h-1v-1q4-7 13-14 9-8 15-10h2l1 2"/><path fill="#0f141b" d="M345 260l1 2-2 2-15 1q-8-1-13-4h-3l-19 5q-12 3-16 2l-8-3-8-8-1-5q4 6 9 9 5 4 9 5l16-2q11-2 17-5h5q5 3 13 4 7 1 13-1h1v-1l-7-5-9-2 3-2 8 3 6 5"/><path fill="#0f141b" d="M368 237h2l-3 4v7l1 7-2 5q-1 2-3 2h-9l-11-3-4-3q6 3 13 4h11l2-1 1-5v-12q0-4 2-5"/><path fill="#0f141b" d="M390 234q1 7-2 9-3 3-7 0l-6-3-7-2-11 1-11 1q-1 0 0 0 3 10 11 16l5 3h3l-1 2q-5 0-11-5-5-5-8-13v-1l-1-1v-2l2-1 10-1 12-1q6 0 14 6 3 2 5 0 2-3 1-8l-5-10-9-10-15-4-16-1 1-2 16 1q11 2 15 5l9 10q5 7 6 11"/><path fill="#0f141b" d="M362 237l2 8 1 8q0 4-3 7h-1l3-7-1-8-3-8h2"/><path fill="#0f141b" d="M366 258l4 5q1 3-2 3l-14-1-2-2 8 1 8 1v-1l-3-4 1-2"/><path fill="#0f141b" d="M327 263l6 3 7 3 9 1h10q-5-3-8-7v-1h1l8 7 1 2-2 1h-10l-10-2-8-2q-5-2-7-5h3M358 230h-7q-2 0-5-4l-4-4q0-2 6-4h7q3 0 6 5 4 5 3 6l-6 1m-3-11h-7l-4 3 3 3 4 3 7 1 5-1-3-4-5-5M369 199q-1 7-4 11h-2l3-6 1-5v-1h-1l-9 4-8 6h-3l9-7q6-4 11-5h2l1 3M305 230l-4-2h-7l-13 1-15 2-2-1 16-2 14-1h7q3 0 5 2l-1 1M313 210l-4 1-21 8-25 11-1-2 46-19 11-2-1 2-5 1"/><path fill="#0f141b" d="M361 172q39 0 60 4l2 1q1 1-1 2-7 4-22 8l-24 7q6 4 13 14 2 2 1 3h-13l-12-2v-2l12 2 11 1v-1l-7-8-9-7-1-1h1l26-7 23-8v-1q-22-3-60-3t-48 3q-6 2-26 18l-29 25-2-1 29-25q21-17 28-19 10-3 48-3"/><path fill="#0f141b" d="M409 83q-22 6-64 25-44 20-55 29l-1-1q10-10 55-30 41-18 65-25h3l-1 3q-4 7-13 17-9 11-18 18l10 3 9 2 3 1-2 2-43 17q-39 15-47 20-6 4-21 20l-23 24-2-1 24-25 21-20q10-6 49-21l41-15 1-1h-1l-11-2q-7-1-10-3v-1l18-18 14-18h-1M283 147l-16 29-16 32h-2l15-31 16-30h3M147 361l-3 11-2 11-1 2-2-1-2-5-1 9-1 2-2-2q-9-18-6-49 2-31 14-55v4q-10 23-12 51-3 30 5 49h1l1-11 1-1v1l3 6 1-1 2-12 3-12 1 3"/><path fill="#0f141b" d="M146 357l1 2q1 8 4 12 0 1 0 0l5-23 6-23 2 2-6 22-5 23-1 2-2-1-3-7-1-7v-2M264 281q14 26 15 61 0 16-3 30-2 13-7 22l-3 1-1-2v-10l-2-9-3 7-2 1-1-2q0-10-3-17l-3 6q0 2-1 1l-1-2v-24q-1-13-4-21l2-2q3 10 4 23t-1 24h1l3-7v-1h1l2 10 1 9 1 1 3-8 1-1 1 1 2 10 1 11q10-18 9-50 0-33-12-58v-4M180 336q6 35 28 59 11 12 30 22l19 12q8 6 10 12l4 6h1l-1-5 1-2v1l1 6q0 4-3 1-2-1-4-6l-10-12-19-11-14-9q-10-7-18-15-21-23-27-60l2 1"/><path fill="#0f141b" d="M272 442l6 9q0 1 0 0v-7l-1-7 2 1v14l-1 2-1-2-5-7v-3"/><path fill="#0f141b" d="M230 335q0 27 12 46 8 13 26 27 6 5 11 15 4 9 4 17l-1 2-2-1-3-4-1-1h2l3 4h1q0-7-5-16-5-10-10-15-18-14-27-26-12-20-13-47l3-1"/><path fill="#0f141b" d="M247 423q10 2 15 8l-3-9v-1h1l6 3 5 4q0 1 0 0l-1-11-4-9 3 2 3 9 1 9-1 3-2-2q-4-4-9-6l3 8-1 2-1-1-12-7-3-2"/><path fill="#0f141b" d="M232 377q10 17 22 27 11 10 17 19l1 2-8-9-11-11q-13-10-23-27-12-20-13-39h2q1 18 13 38M191 339q4 29 21 52 14 18 34 31l-9-4q-18-13-30-30-15-22-18-49h2"/><path fill="#0f141b" d="M225 365q-5 4-14 4-8 1-13-1l-1-2q7 2 15 1 9 0 12-3l1 1M235 384q-5 3-13 5h-12l-1-1q6 1 14-1l11-4 1 1M247 399q-5 4-13 6h-11l-1-2h12q8-2 12-5l1 1M240 419q6 0 12-3l7-6 1 1q-2 4-7 6-5 3-11 3l-2-1M73 237l-3 4-1 1h-1l3-5 3-4 1 1h1l-3 3M346 268l9 3-1 1-9-3-7-5h1l1-1 6 5"/><path fill="#fff" d="M257 133l-2 4-2 2-2-2-1-3 3-1h4"/><path fill="#dcdddd" d="M257 133l-2 4-2 2-1-1-1-1 6-4"/><path fill="#0f141b" d="M249 135q0-2 2-2h5l1 1-2 3-2 3-2-2q-2-1-2-3m4 3l2-2 1-2h-5v1l1 2 1 1"/></svg>